<svg width="206" height="80" viewBox="0 0 206 80" fill="none" xmlns="http://www.w3.org/2000/svg">
<g clip-path="url(#clip0_4_1086)">
<path d="M24.8815 57.2274C20.3038 57.2274 16.1838 56.2311 12.5215 54.2384C8.85931 52.1918 5.978 49.149 3.87761 45.1098C1.77722 41.0167 0.727023 35.9542 0.727023 29.9223C0.727023 24.1058 1.80415 19.1511 3.9584 15.058C6.1665 10.9111 9.34402 7.76047 13.4909 5.60622C17.6379 3.39811 22.5926 2.29406 28.3553 2.29406C34.9257 2.29406 40.1767 3.45197 44.1082 5.76779C48.0936 8.0836 51.1364 11.7997 53.2368 16.916L35.7066 23.2172C35.3296 20.686 34.4949 18.9356 33.2023 17.9662C31.9636 16.943 30.4018 16.4313 28.5168 16.4313C26.4703 16.4313 24.8007 16.916 23.5082 17.8854C22.2695 18.8548 21.354 20.3359 20.7615 22.3286C20.223 24.2674 19.9537 26.7448 19.9537 29.7607C19.9537 33.0998 20.3038 35.7926 21.0039 37.8392C21.7579 39.8857 22.8619 41.3667 24.316 42.2823C25.824 43.144 27.709 43.5748 29.9709 43.5748C31.0481 43.5748 32.0175 43.4671 32.8792 43.2517C33.7947 43.0363 34.5757 42.7131 35.2219 42.2823C35.9221 41.7976 36.4337 41.2052 36.7568 40.505C37.1338 39.8049 37.3223 38.9701 37.3223 38.0007V37.9199H28.3553V26.3678H53.0753V56.4196H40.6345L39.0996 42.1207L42.0078 45.2713C41.0923 49.0951 39.1804 52.0572 36.2721 54.1576C33.4177 56.2041 29.6209 57.2274 24.8815 57.2274ZM109.194 3.1019C113.988 3.1019 118.054 3.82896 121.393 5.28308C124.732 6.7372 127.263 8.86452 128.987 11.665C130.71 14.4656 131.572 17.8854 131.572 21.9247C131.572 25.9639 130.71 29.3837 128.987 32.1843C127.263 34.9848 124.732 37.1121 121.393 38.5662C118.054 40.0203 113.988 40.7474 109.194 40.7474H99.7427V56.4196H80.92V3.1019H109.194ZM106.125 27.418C108.171 27.418 109.787 26.9871 110.972 26.1254C112.157 25.2099 112.749 23.8096 112.749 21.9247C112.749 20.0397 112.157 18.6664 110.972 17.8047C109.787 16.8891 108.171 16.4313 106.125 16.4313H99.7427V27.418H106.125ZM181.501 2.29406C186.617 2.29406 191.195 2.94034 195.234 4.23288C199.327 5.47158 202.936 7.35654 206.059 9.88779L198.466 22.0054C195.934 20.2282 193.268 18.801 190.468 17.7239C187.721 16.6467 184.732 16.1082 181.501 16.1082C180.101 16.1082 178.97 16.2159 178.108 16.4313C177.3 16.6467 176.708 16.943 176.331 17.3199C176.008 17.6969 175.846 18.1278 175.846 18.6125C175.846 19.2588 176.331 19.7435 177.3 20.0666C178.323 20.3897 179.589 20.7398 181.097 21.1168L188.448 22.8133C193.888 24.052 197.981 25.8831 200.728 28.3066C203.528 30.7301 204.928 34.0962 204.928 38.4047C204.928 42.7131 203.878 46.2677 201.778 49.0682C199.677 51.8148 196.823 53.8614 193.215 55.2078C189.66 56.5542 185.621 57.2274 181.097 57.2274C177.704 57.2274 174.311 56.9312 170.918 56.3388C167.525 55.6925 164.375 54.7769 161.466 53.5921C158.558 52.3534 156.054 50.8724 153.953 49.149L161.386 36.789C162.947 38.0277 164.832 39.1586 167.04 40.1819C169.249 41.1513 171.537 41.9322 173.907 42.5247C176.277 43.1171 178.485 43.4133 180.531 43.4133C181.824 43.4133 182.847 43.3056 183.601 43.0901C184.355 42.8747 184.867 42.6054 185.136 42.2823C185.459 41.9053 185.621 41.4745 185.621 40.9897C185.621 40.2358 185.298 39.6703 184.651 39.2933C184.059 38.9163 182.955 38.5393 181.339 38.1623L173.261 36.385C170.406 35.7388 167.687 34.8771 165.102 33.7999C162.517 32.7228 160.416 31.161 158.8 29.1145C157.185 27.0141 156.377 24.1866 156.377 20.6321C156.377 16.9699 157.346 13.7654 159.285 11.0188C161.278 8.2721 164.132 6.14478 167.848 4.63681C171.618 3.07498 176.169 2.29406 181.501 2.29406Z" fill="url(#paint0_linear_4_1086)"/>
<path d="M5.28008 75.9488C4.52179 75.9488 3.84535 75.7808 3.25078 75.4447C2.66482 75.1087 2.20812 74.6132 1.88068 73.9583C1.55323 73.3034 1.38951 72.5063 1.38951 71.5671C1.38951 70.6451 1.56185 69.8566 1.90653 69.2017C2.25121 68.5468 2.74238 68.0427 3.38003 67.6894C4.02631 67.3361 4.7846 67.1595 5.65492 67.1595C6.62002 67.1595 7.39986 67.3361 7.99443 67.6894C8.58901 68.0341 9.05002 68.5856 9.37746 69.3439L7.32231 70.1582C7.21029 69.7187 7.0121 69.3999 6.72774 69.2017C6.44338 69.0035 6.09008 68.9044 5.66785 68.9044C5.24561 68.9044 4.8837 69.0078 4.5821 69.2147C4.28051 69.4128 4.05216 69.7101 3.89705 70.1065C3.74195 70.4943 3.66439 70.9768 3.66439 71.5542C3.66439 72.1574 3.74195 72.6615 3.89705 73.0665C4.06078 73.4714 4.29774 73.773 4.60796 73.9712C4.92678 74.1608 5.31886 74.2556 5.78418 74.2556C6.03407 74.2556 6.26242 74.2254 6.46923 74.1651C6.67603 74.1048 6.85699 74.0186 7.0121 73.9066C7.1672 73.786 7.28784 73.6395 7.37401 73.4671C7.46018 73.2862 7.50327 73.0751 7.50327 72.8338V72.7045H5.55152V71.2181H9.39039V75.8196H7.87811L7.71007 73.8161L8.07199 74.1263C7.89103 74.7123 7.56358 75.1647 7.08965 75.4835C6.62433 75.7937 6.02114 75.9488 5.28008 75.9488ZM14.9181 67.1595C15.7798 67.1595 16.5208 67.3361 17.1412 67.6894C17.7703 68.0341 18.2528 68.5339 18.5889 69.1888C18.925 69.8437 19.093 70.6321 19.093 71.5542C19.093 72.4762 18.925 73.2646 18.5889 73.9195C18.2528 74.5744 17.7703 75.0785 17.1412 75.4318C16.5208 75.7765 15.7798 75.9488 14.9181 75.9488C14.0564 75.9488 13.311 75.7765 12.6819 75.4318C12.0529 75.0785 11.5704 74.5744 11.2343 73.9195C10.8982 73.2646 10.7302 72.4762 10.7302 71.5542C10.7302 70.6321 10.8982 69.8437 11.2343 69.1888C11.5704 68.5339 12.0529 68.0341 12.6819 67.6894C13.311 67.3361 14.0564 67.1595 14.9181 67.1595ZM14.9181 68.9044C14.5044 68.9044 14.1555 69.0035 13.8711 69.2017C13.5867 69.3999 13.3713 69.6972 13.2248 70.0936C13.0783 70.4814 13.0051 70.9682 13.0051 71.5542C13.0051 72.1315 13.0783 72.6184 13.2248 73.0147C13.3713 73.4111 13.5867 73.7084 13.8711 73.9066C14.1555 74.1048 14.5044 74.2039 14.9181 74.2039C15.3317 74.2039 15.6763 74.1048 15.9521 73.9066C16.2365 73.7084 16.4519 73.4111 16.5984 73.0147C16.7449 72.6184 16.8181 72.1315 16.8181 71.5542C16.8181 70.9682 16.7449 70.4814 16.5984 70.0936C16.4519 69.6972 16.2365 69.3999 15.9521 69.2017C15.6763 69.0035 15.3317 68.9044 14.9181 68.9044ZM22.8453 74.1005H27.1237V75.8196H20.6221V67.2888H22.8453V74.1005ZM32.0168 67.2888C33.3524 67.2888 34.3735 67.6593 35.0801 68.4003C35.7953 69.1414 36.1529 70.1927 36.1529 71.5542C36.1529 72.9157 35.7953 73.9669 35.0801 74.708C34.3735 75.449 33.3524 75.8196 32.0168 75.8196H28.3976V67.2888H32.0168ZM31.797 74.1393C32.5209 74.1393 33.0465 73.9238 33.3739 73.493C33.71 73.0535 33.878 72.4073 33.878 71.5542C33.878 70.7011 33.71 70.0591 33.3739 69.6283C33.0465 69.1888 32.5209 68.9691 31.797 68.9691H30.6208V74.1393H31.797ZM37.6752 75.8196V67.2888H44.3189V69.0078H39.8984V70.7399H43.4141V72.3555H39.8984V74.1005H44.4869V75.8196H37.6752ZM53.52 67.2888V75.8196H51.0513L48.4015 71.2052L47.7553 69.9385H47.7423L47.794 71.5154V75.8196H45.8294V67.2888H48.2981L50.9479 71.9032L51.5941 73.1699H51.6071L51.5554 71.5929V67.2888H53.52ZM63.0247 67.2888C63.7227 67.2888 64.3173 67.4008 64.8084 67.6248C65.2996 67.8489 65.6744 68.172 65.9329 68.5942C66.1915 69.0165 66.3207 69.5292 66.3207 70.1324C66.3207 70.7356 66.1915 71.2483 65.9329 71.6705C65.6744 72.0927 65.2996 72.4159 64.8084 72.6399C64.3173 72.864 63.7227 72.976 63.0247 72.976H61.3315V75.8196H59.1083V67.2888H63.0247ZM62.6757 71.3086C63.141 71.3086 63.49 71.2138 63.7227 71.0242C63.964 70.826 64.0846 70.5287 64.0846 70.1324C64.0846 69.736 63.964 69.443 63.7227 69.2534C63.49 69.0552 63.141 68.9561 62.6757 68.9561H61.3315V71.3086H62.6757ZM71.8136 67.2888C72.8304 67.2888 73.6189 67.53 74.179 68.0126C74.7477 68.4865 75.0321 69.1199 75.0321 69.9126C75.0321 70.7829 74.752 71.4465 74.1919 71.9032C73.6318 72.3599 72.8434 72.5882 71.8266 72.5882L71.6198 72.7045H69.9265V75.8196H67.7421V67.2888H71.8136ZM71.5034 71.1276C71.9343 71.1276 72.2574 71.0415 72.4728 70.8691C72.6883 70.6968 72.796 70.421 72.796 70.0419C72.796 69.6714 72.6883 69.3999 72.4728 69.2276C72.2574 69.0552 71.9343 68.9691 71.5034 68.9691H69.9265V71.1276H71.5034ZM72.8089 71.5929L75.5362 75.8196H73.0803L70.8959 72.0841L72.8089 71.5929ZM80.3912 67.1595C81.2529 67.1595 81.994 67.3361 82.6144 67.6894C83.2434 68.0341 83.726 68.5339 84.0621 69.1888C84.3981 69.8437 84.5662 70.6321 84.5662 71.5542C84.5662 72.4762 84.3981 73.2646 84.0621 73.9195C83.726 74.5744 83.2434 75.0785 82.6144 75.4318C81.994 75.7765 81.2529 75.9488 80.3912 75.9488C79.5295 75.9488 78.7841 75.7765 78.1551 75.4318C77.5261 75.0785 77.0435 74.5744 76.7075 73.9195C76.3714 73.2646 76.2034 72.4762 76.2034 71.5542C76.2034 70.6321 76.3714 69.8437 76.7075 69.1888C77.0435 68.5339 77.5261 68.0341 78.1551 67.6894C78.7841 67.3361 79.5295 67.1595 80.3912 67.1595ZM80.3912 68.9044C79.9776 68.9044 79.6286 69.0035 79.3443 69.2017C79.0599 69.3999 78.8445 69.6972 78.698 70.0936C78.5515 70.4814 78.4782 70.9682 78.4782 71.5542C78.4782 72.1315 78.5515 72.6184 78.698 73.0147C78.8445 73.4111 79.0599 73.7084 79.3443 73.9066C79.6286 74.1048 79.9776 74.2039 80.3912 74.2039C80.8048 74.2039 81.1495 74.1048 81.4253 73.9066C81.7096 73.7084 81.925 73.4111 82.0715 73.0147C82.218 72.6184 82.2913 72.1315 82.2913 71.5542C82.2913 70.9682 82.218 70.4814 82.0715 70.0936C81.925 69.6972 81.7096 69.3999 81.4253 69.2017C81.1495 69.0035 80.8048 68.9044 80.3912 68.9044ZM90.0117 67.2888C90.7097 67.2888 91.3043 67.4008 91.7954 67.6248C92.2866 67.8489 92.6614 68.172 92.92 68.5942C93.1785 69.0165 93.3077 69.5292 93.3077 70.1324C93.3077 70.7356 93.1785 71.2483 92.92 71.6705C92.6614 72.0927 92.2866 72.4159 91.7954 72.6399C91.3043 72.864 90.7097 72.976 90.0117 72.976H88.3185V75.8196H86.0953V67.2888H90.0117ZM89.6627 71.3086C90.128 71.3086 90.477 71.2138 90.7097 71.0242C90.951 70.826 91.0716 70.5287 91.0716 70.1324C91.0716 69.736 90.951 69.443 90.7097 69.2534C90.477 69.0552 90.128 68.9561 89.6627 68.9561H88.3185V71.3086H89.6627ZM94.7291 75.8196V67.2888H101.373V69.0078H96.9523V70.7399H100.468V72.3555H96.9523V74.1005H101.541V75.8196H94.7291ZM106.955 67.2888C107.972 67.2888 108.76 67.53 109.32 68.0126C109.889 68.4865 110.173 69.1199 110.173 69.9126C110.173 70.7829 109.893 71.4465 109.333 71.9032C108.773 72.3599 107.985 72.5882 106.968 72.5882L106.761 72.7045H105.068V75.8196H102.883V67.2888H106.955ZM106.645 71.1276C107.075 71.1276 107.399 71.0415 107.614 70.8691C107.829 70.6968 107.937 70.421 107.937 70.0419C107.937 69.6714 107.829 69.3999 107.614 69.2276C107.399 69.0552 107.075 68.9691 106.645 68.9691H105.068V71.1276H106.645ZM107.95 71.5929L110.677 75.8196H108.222L106.037 72.0841L107.95 71.5929ZM118.867 67.2888V69.0078H116.088V75.8196H113.865V69.0078H111.073V67.2888H118.867ZM127.33 67.2888L124.319 72.7045V75.8196H122.096V72.7045L119.084 67.2888H121.385L122.587 69.6283L123.22 71.0501L123.866 69.6283L125.068 67.2888H127.33ZM135.073 67.1595C135.866 67.1595 136.564 67.2844 137.167 67.5343C137.779 67.7756 138.309 68.1332 138.757 68.6072L137.684 70.0419C137.314 69.6541 136.913 69.3655 136.482 69.1759C136.06 68.9777 135.577 68.8786 135.034 68.8786C134.716 68.8786 134.457 68.9131 134.259 68.982C134.061 69.0509 133.919 69.1457 133.832 69.2664C133.746 69.387 133.703 69.5249 133.703 69.68C133.703 69.8609 133.785 70.016 133.949 70.1453C134.121 70.2659 134.397 70.3693 134.776 70.4555L136.211 70.7786C137.064 70.9768 137.688 71.2655 138.085 71.6446C138.481 72.0238 138.679 72.5279 138.679 73.1569C138.679 73.7601 138.524 74.2728 138.214 74.6951C137.904 75.1087 137.477 75.4232 136.934 75.6386C136.392 75.8454 135.771 75.9488 135.073 75.9488C134.504 75.9488 133.962 75.8885 133.445 75.7679C132.928 75.6386 132.462 75.4577 132.049 75.225C131.635 74.9923 131.286 74.7252 131.002 74.4236L132.074 72.9372C132.29 73.1871 132.553 73.4111 132.863 73.6093C133.182 73.7989 133.526 73.9497 133.897 74.0617C134.276 74.1737 134.66 74.2297 135.047 74.2297C135.349 74.2297 135.599 74.1996 135.797 74.1393C136.004 74.0789 136.155 73.9885 136.249 73.8678C136.344 73.7472 136.392 73.605 136.392 73.4413C136.392 73.2603 136.327 73.1095 136.198 72.9889C136.068 72.8596 135.823 72.7519 135.461 72.6658L133.884 72.3168C133.402 72.2048 132.971 72.0583 132.592 71.8773C132.221 71.6877 131.928 71.4378 131.713 71.1276C131.497 70.8088 131.389 70.4124 131.389 69.9385C131.389 69.4042 131.536 68.9303 131.829 68.5167C132.122 68.0944 132.544 67.7627 133.096 67.5214C133.647 67.2801 134.306 67.1595 135.073 67.1595ZM143.895 67.1595C144.757 67.1595 145.498 67.3361 146.118 67.6894C146.747 68.0341 147.23 68.5339 147.566 69.1888C147.902 69.8437 148.07 70.6321 148.07 71.5542C148.07 72.4762 147.902 73.2646 147.566 73.9195C147.23 74.5744 146.747 75.0785 146.118 75.4318C145.498 75.7765 144.757 75.9488 143.895 75.9488C143.034 75.9488 142.288 75.7765 141.659 75.4318C141.03 75.0785 140.548 74.5744 140.212 73.9195C139.875 73.2646 139.707 72.4762 139.707 71.5542C139.707 70.6321 139.875 69.8437 140.212 69.1888C140.548 68.5339 141.03 68.0341 141.659 67.6894C142.288 67.3361 143.034 67.1595 143.895 67.1595ZM143.895 68.9044C143.482 68.9044 143.133 69.0035 142.848 69.2017C142.564 69.3999 142.349 69.6972 142.202 70.0936C142.056 70.4814 141.982 70.9682 141.982 71.5542C141.982 72.1315 142.056 72.6184 142.202 73.0147C142.349 73.4111 142.564 73.7084 142.848 73.9066C143.133 74.1048 143.482 74.2039 143.895 74.2039C144.309 74.2039 144.654 74.1048 144.929 73.9066C145.214 73.7084 145.429 73.4111 145.576 73.0147C145.722 72.6184 145.795 72.1315 145.795 71.5542C145.795 70.9682 145.722 70.4814 145.576 70.0936C145.429 69.6972 145.214 69.3999 144.929 69.2017C144.654 69.0035 144.309 68.9044 143.895 68.9044ZM157.057 67.2888V72.3426C157.057 73.549 156.734 74.4538 156.088 75.057C155.45 75.6515 154.502 75.9488 153.244 75.9488C151.995 75.9488 151.047 75.6515 150.401 75.057C149.754 74.4538 149.431 73.549 149.431 72.3426V67.2888H151.667V72.3814C151.667 72.9932 151.797 73.4499 152.055 73.7515C152.322 74.0531 152.719 74.2039 153.244 74.2039C153.779 74.2039 154.175 74.0531 154.433 73.7515C154.701 73.4499 154.834 72.9932 154.834 72.3814V67.2888H157.057ZM160.999 74.1005H165.277V75.8196H158.776V67.2888H160.999V74.1005ZM173.934 67.2888V72.3426C173.934 73.549 173.611 74.4538 172.964 75.057C172.327 75.6515 171.379 75.9488 170.121 75.9488C168.871 75.9488 167.923 75.6515 167.277 75.057C166.631 74.4538 166.308 73.549 166.308 72.3426V67.2888H168.544V72.3814C168.544 72.9932 168.673 73.4499 168.932 73.7515C169.199 74.0531 169.595 74.2039 170.121 74.2039C170.655 74.2039 171.051 74.0531 171.31 73.7515C171.577 73.4499 171.711 72.9932 171.711 72.3814V67.2888H173.934ZM182.826 67.2888V69.0078H180.047V75.8196H177.824V69.0078H175.032V67.2888H182.826ZM186.32 67.2888V75.8196H184.097V67.2888H186.32ZM192.038 67.1595C192.899 67.1595 193.64 67.3361 194.261 67.6894C194.89 68.0341 195.372 68.5339 195.709 69.1888C196.045 69.8437 196.213 70.6321 196.213 71.5542C196.213 72.4762 196.045 73.2646 195.709 73.9195C195.372 74.5744 194.89 75.0785 194.261 75.4318C193.64 75.7765 192.899 75.9488 192.038 75.9488C191.176 75.9488 190.431 75.7765 189.802 75.4318C189.173 75.0785 188.69 74.5744 188.354 73.9195C188.018 73.2646 187.85 72.4762 187.85 71.5542C187.85 70.6321 188.018 69.8437 188.354 69.1888C188.69 68.5339 189.173 68.0341 189.802 67.6894C190.431 67.3361 191.176 67.1595 192.038 67.1595ZM192.038 68.9044C191.624 68.9044 191.275 69.0035 190.991 69.2017C190.706 69.3999 190.491 69.6972 190.344 70.0936C190.198 70.4814 190.125 70.9682 190.125 71.5542C190.125 72.1315 190.198 72.6184 190.344 73.0147C190.491 73.4111 190.706 73.7084 190.991 73.9066C191.275 74.1048 191.624 74.2039 192.038 74.2039C192.451 74.2039 192.796 74.1048 193.072 73.9066C193.356 73.7084 193.571 73.4111 193.718 73.0147C193.864 72.6184 193.938 72.1315 193.938 71.5542C193.938 70.9682 193.864 70.4814 193.718 70.0936C193.571 69.6972 193.356 69.3999 193.072 69.2017C192.796 69.0035 192.451 68.9044 192.038 68.9044ZM205.432 67.2888V75.8196H202.964L200.314 71.2052L199.668 69.9385H199.655L199.706 71.5154V75.8196H197.742V67.2888H200.211L202.86 71.9032L203.507 73.1699H203.519L203.468 71.5929V67.2888H205.432Z" fill="#24173D"/>
</g>
<defs>
<linearGradient id="paint0_linear_4_1086" x1="-1.61572" y1="28.9196" x2="207.384" y2="28.9196" gradientUnits="userSpaceOnUse">
<stop stop-color="#2A2D3E"/>
<stop offset="1" stop-color="#FFC633"/>
</linearGradient>
<clipPath id="clip0_4_1086">
<rect width="206" height="80" fill="white"/>
</clipPath>
</defs>
</svg>
