<svg width="1788" height="441" viewBox="0 0 1788 441" fill="none" xmlns="http://www.w3.org/2000/svg">
<g filter="url(#filter0_d_4_1016)">
<mask id="path-1-inside-1_4_1016" fill="white">
<path fill-rule="evenodd" clip-rule="evenodd" d="M611 0H24C12.9543 0 4 8.9543 4 20V413C4 424.046 12.9543 433 24 433H1764C1775.05 433 1784 424.046 1784 413V20C1784 8.9543 1775.05 0 1764 0H1178V5H1764C1772.28 5 1779 11.7157 1779 20V413C1779 421.284 1772.28 428 1764 428H24C15.7157 428 9 421.284 9 413V20C9 11.7157 15.7157 5 24 5H611V0Z"/>
</mask>
<path fill-rule="evenodd" clip-rule="evenodd" d="M611 0H24C12.9543 0 4 8.9543 4 20V413C4 424.046 12.9543 433 24 433H1764C1775.05 433 1784 424.046 1784 413V20C1784 8.9543 1775.05 0 1764 0H1178V5H1764C1772.28 5 1779 11.7157 1779 20V413C1779 421.284 1772.28 428 1764 428H24C15.7157 428 9 421.284 9 413V20C9 11.7157 15.7157 5 24 5H611V0Z" fill="#EEEAF4"/>
<path d="M611 0H612V-1H611V0ZM1178 0V-1H1177V0H1178ZM1178 5H1177V6H1178V5ZM611 5V6H612V5H611ZM611 -1H24V1H611V-1ZM24 -1C12.402 -1 3 8.40202 3 20H5C5 9.50659 13.5066 1 24 1V-1ZM3 20V413H5V20H3ZM3 413C3 424.598 12.402 434 24 434V432C13.5066 432 5 423.493 5 413H3ZM24 434H1764V432H24V434ZM1764 434C1775.6 434 1785 424.598 1785 413H1783C1783 423.493 1774.49 432 1764 432V434ZM1785 413V20H1783V413H1785ZM1785 20C1785 8.40202 1775.6 -1 1764 -1V1C1774.49 1 1783 9.50659 1783 20H1785ZM1764 -1H1178V1H1764V-1ZM1177 0V5H1179V0H1177ZM1764 4H1178V6H1764V4ZM1780 20C1780 11.1634 1772.84 4 1764 4V6C1771.73 6 1778 12.268 1778 20H1780ZM1780 413V20H1778V413H1780ZM1764 429C1772.84 429 1780 421.837 1780 413H1778C1778 420.732 1771.73 427 1764 427V429ZM24 429H1764V427H24V429ZM8 413C8 421.837 15.1634 429 24 429V427C16.268 427 10 420.732 10 413H8ZM8 20V413H10V20H8ZM24 4C15.1634 4 8 11.1634 8 20H10C10 12.268 16.268 6 24 6V4ZM611 4H24V6H611V4ZM612 5V0H610V5H612Z" fill="black" mask="url(#path-1-inside-1_4_1016)"/>
</g>
<defs>
<filter id="filter0_d_4_1016" x="0" y="0" width="1788" height="441" filterUnits="userSpaceOnUse" color-interpolation-filters="sRGB">
<feFlood flood-opacity="0" result="BackgroundImageFix"/>
<feColorMatrix in="SourceAlpha" type="matrix" values="0 0 0 0 0 0 0 0 0 0 0 0 0 0 0 0 0 0 127 0" result="hardAlpha"/>
<feOffset dy="4"/>
<feGaussianBlur stdDeviation="2"/>
<feComposite in2="hardAlpha" operator="out"/>
<feColorMatrix type="matrix" values="0 0 0 0 0 0 0 0 0 0 0 0 0 0 0 0 0 0 0.25 0"/>
<feBlend mode="normal" in2="BackgroundImageFix" result="effect1_dropShadow_4_1016"/>
<feBlend mode="normal" in="SourceGraphic" in2="effect1_dropShadow_4_1016" result="shape"/>
</filter>
</defs>
</svg>
