<svg width="66" height="80" viewBox="0 0 66 80" fill="none" xmlns="http://www.w3.org/2000/svg">
<g opacity="0.7">
<path d="M49.779 80C33.1906 80 16.6022 80 0.0276243 80C0.0138122 79.7514 0 79.489 0 79.2403C0 53.2044 0 27.1685 0 1.1326C0 0 0 0 1.14641 0C10.0138 0 18.8812 0 27.7486 0C34.6409 0 41.5331 0 48.4254 0C49.8066 0 51.1188 0.248619 52.3343 0.939227C55.2072 2.59668 56.5608 5.09669 56.5608 8.38398C56.547 29.4751 56.5608 50.5801 56.5608 71.6713C56.5608 71.8785 56.5608 72.0856 56.547 72.2928C56.4503 74.5304 55.6077 76.4365 53.9365 77.9558C52.7486 79.0331 51.3398 79.6823 49.779 80ZM9.5442 28.1906C9.53039 38.4807 17.9144 46.9889 28.1215 47.0166C38.4807 47.0442 46.9889 38.6326 47.0166 28.3425C47.0304 17.9696 38.674 9.55801 28.3149 9.53039C17.9558 9.51657 9.55801 17.8591 9.5442 28.1906ZM28.3564 54.2127C24.7238 54.2127 21.105 54.2265 17.4724 54.1989C16.8232 54.1989 16.547 54.4199 16.5746 55.0829C16.616 55.953 16.5746 56.8232 16.5884 57.7072C16.5884 58.7155 16.616 58.7569 17.6381 58.7569C22.3066 58.7569 26.9613 58.7569 31.6298 58.7569C34.1298 58.7569 36.6436 58.7431 39.1436 58.7707C39.7514 58.7707 40.0276 58.5635 40 57.9282C39.9586 57.0304 40 56.1326 39.9862 55.2348C39.9862 54.268 39.9309 54.2127 38.9779 54.2127C35.4282 54.2127 31.8923 54.2127 28.3564 54.2127ZM28.2044 68.163C30.2762 68.163 32.3343 68.1492 34.4061 68.1768C35.0691 68.1906 35.3039 67.9282 35.2762 67.279C35.2348 66.2983 35.2486 65.3039 35.2762 64.3094C35.2901 63.8122 35.0691 63.605 34.5718 63.605C30.3729 63.6188 26.1602 63.6188 21.9613 63.605C21.4641 63.605 21.2569 63.8122 21.2569 64.3094C21.2707 65.3039 21.2845 66.2845 21.2431 67.279C21.2155 67.942 21.4779 68.1768 22.1271 68.163C24.1713 68.1492 26.1878 68.163 28.2044 68.163Z" fill="url(#paint0_linear_4_950)"/>
<path d="M58.4669 80C58.5774 79.779 58.674 79.5442 58.8122 79.337C60.3867 77.0442 61.105 74.5304 61.0912 71.7542C61.0774 50.5939 61.0774 29.4475 61.0912 8.28729C61.0912 5.53868 60.4006 3.02486 58.8398 0.759669C58.7155 0.580111 58.4669 0.38674 58.6188 0.151934C58.7707 -0.0690608 59.047 0.0552486 59.2541 0.0966851C62.5414 0.732044 64.6409 2.67956 65.6354 5.85635C65.732 6.16022 65.8011 6.4779 65.884 6.78177C65.884 28.9365 65.884 51.0912 65.884 73.2459C65.5111 75.0276 64.7652 76.6022 63.4116 77.8729C62.2238 78.9917 60.8287 79.6409 59.268 80C59.0193 80 58.7431 80 58.4669 80Z" fill="url(#paint1_linear_4_950)"/>
<path d="M28.2459 30.5249C29.2818 30.5249 30.3039 30.5387 31.3398 30.5249C31.9751 30.511 32.1961 30.8011 32.1409 31.4088C31.8646 34.268 31.4088 37.0995 30.3039 39.779C30.0414 40.4144 29.6823 41.0083 29.2818 41.5746C28.5497 42.6243 27.9558 42.5967 27.2376 41.5608C26.1602 40 25.5939 38.2321 25.1519 36.4227C24.7514 34.8204 24.5856 33.1768 24.4199 31.5332C24.337 30.663 24.4613 30.5387 25.3591 30.5387C26.326 30.5111 27.279 30.5249 28.2459 30.5249Z" fill="url(#paint2_linear_4_950)"/>
<path d="M28.2735 25.9669C27.2376 25.9669 26.2017 25.953 25.1796 25.9669C24.6271 25.9807 24.3646 25.7597 24.4199 25.1934C24.6823 22.2099 25.1243 19.268 26.3536 16.5055C26.6851 15.7735 27.1133 15.0967 27.6657 14.5028C28.0801 14.0608 28.4945 14.0746 28.9088 14.5028C29.5442 15.1796 29.9862 15.9807 30.3453 16.837C31.4641 19.489 31.8784 22.3066 32.1547 25.1381C32.2099 25.732 31.9889 25.9807 31.3812 25.9669C30.3315 25.953 29.2956 25.9669 28.2735 25.9669Z" fill="url(#paint3_linear_4_950)"/>
<path d="M42.1409 31.2017C41.8785 32.5691 41.3122 33.9779 40.5525 35.3039C39.3508 37.4033 37.721 39.0884 35.663 40.3453C35.4834 40.4558 35.2901 40.7183 35.0553 40.5387C34.8619 40.3868 35.0552 40.152 35.1105 39.9724C35.953 37.21 36.5332 34.4061 36.6713 31.5193C36.7127 30.6492 36.8094 30.5387 37.6934 30.5387C38.9503 30.5249 40.221 30.5387 41.4779 30.5387C41.837 30.5249 42.2238 30.5387 42.1409 31.2017Z" fill="url(#paint4_linear_4_950)"/>
<path d="M17.1271 30.5249C17.7072 30.5249 18.2735 30.5249 18.8536 30.5249C19.7238 30.5387 19.8343 30.6354 19.8757 31.5193C19.9862 34.2265 20.5387 36.837 21.2569 39.4337C21.3536 39.7928 21.7403 40.2901 21.4641 40.4972C21.1188 40.7459 20.7459 40.2486 20.4282 40.0276C17.3343 37.9558 15.3729 35.0829 14.489 31.4779C14.2818 30.663 14.4061 30.5387 15.221 30.5249C15.8425 30.511 16.4779 30.5249 17.1271 30.5249Z" fill="url(#paint5_linear_4_950)"/>
<path d="M17.0304 25.9668C16.395 25.9668 15.7459 25.9807 15.1105 25.9668C14.4061 25.953 14.2956 25.8149 14.4475 25.1243C14.9586 22.8729 15.9807 20.8563 17.4724 19.0884C18.4392 17.942 19.5856 16.9889 20.8425 16.1878C21.0221 16.0773 21.2293 15.8287 21.4503 15.9945C21.6575 16.1464 21.4641 16.3812 21.4227 16.5608C20.6354 19.2956 20 22.058 19.8895 24.9309C19.8481 25.884 19.7376 25.9668 18.7707 25.9668C18.1768 25.9807 17.5967 25.9668 17.0304 25.9668Z" fill="url(#paint6_linear_4_950)"/>
<path d="M39.489 25.9669C38.7984 25.9669 38.1078 25.953 37.431 25.9669C36.9475 25.9807 36.7127 25.7459 36.6989 25.2624C36.5746 22.2238 35.9531 19.268 35.0553 16.3536C35.0138 16.2017 34.9033 16.0359 35.0691 15.9116C35.2072 15.8149 35.3315 15.9392 35.442 16.0083C37.8729 17.5138 39.8205 19.489 41.0221 22.1133C41.4779 23.1077 41.9061 24.1298 42.1271 25.221C42.2238 25.732 42.0718 25.9669 41.547 25.953C40.8564 25.9669 40.1658 25.9669 39.489 25.9669Z" fill="url(#paint7_linear_4_950)"/>
</g>
<defs>
<linearGradient id="paint0_linear_4_950" x1="0" y1="40" x2="65.884" y2="40" gradientUnits="userSpaceOnUse">
<stop stop-color="#FCEABB"/>
<stop offset="1" stop-color="#F8B500"/>
</linearGradient>
<linearGradient id="paint1_linear_4_950" x1="0" y1="40" x2="65.884" y2="40" gradientUnits="userSpaceOnUse">
<stop stop-color="#FCEABB"/>
<stop offset="1" stop-color="#F8B500"/>
</linearGradient>
<linearGradient id="paint2_linear_4_950" x1="0" y1="40" x2="65.884" y2="40" gradientUnits="userSpaceOnUse">
<stop stop-color="#FCEABB"/>
<stop offset="1" stop-color="#F8B500"/>
</linearGradient>
<linearGradient id="paint3_linear_4_950" x1="0" y1="40" x2="65.884" y2="40" gradientUnits="userSpaceOnUse">
<stop stop-color="#FCEABB"/>
<stop offset="1" stop-color="#F8B500"/>
</linearGradient>
<linearGradient id="paint4_linear_4_950" x1="0" y1="40" x2="65.884" y2="40" gradientUnits="userSpaceOnUse">
<stop stop-color="#FCEABB"/>
<stop offset="1" stop-color="#F8B500"/>
</linearGradient>
<linearGradient id="paint5_linear_4_950" x1="0" y1="40" x2="65.884" y2="40" gradientUnits="userSpaceOnUse">
<stop stop-color="#FCEABB"/>
<stop offset="1" stop-color="#F8B500"/>
</linearGradient>
<linearGradient id="paint6_linear_4_950" x1="0" y1="40" x2="65.884" y2="40" gradientUnits="userSpaceOnUse">
<stop stop-color="#FCEABB"/>
<stop offset="1" stop-color="#F8B500"/>
</linearGradient>
<linearGradient id="paint7_linear_4_950" x1="0" y1="40" x2="65.884" y2="40" gradientUnits="userSpaceOnUse">
<stop stop-color="#FCEABB"/>
<stop offset="1" stop-color="#F8B500"/>
</linearGradient>
</defs>
</svg>
